<?xml version="1.0" encoding="utf-8"?>
<!-- Generator: Adobe Illustrator 24.3.0, SVG Export Plug-In . SVG Version: 6.00 Build 0)  -->
<svg version="1.1" id="Слой_1" xmlns="http://www.w3.org/2000/svg" xmlns:xlink="http://www.w3.org/1999/xlink" x="0px" y="0px"
	 viewBox="0 0 184.4 20.6" style="enable-background:new 0 0 184.4 20.6;" xml:space="preserve">
<style type="text/css">
	.st0{fill:#EEEDED;}
	.st1{fill:#CAD400;}
</style>
<g>
	<path class="st0" d="M10.3,14.9c0.2,0,0.4,0,0.7-0.1c0.2,0,0.5-0.1,0.7-0.2v-4.4h5.6v7.1c-0.9,0.9-1.9,1.5-3.2,2S11.6,20,10.3,20
		s-2.6-0.2-3.8-0.7c-1.2-0.4-2.3-1.1-3.2-1.9c-0.9-0.8-1.6-1.9-2.2-3.1c-0.5-1.2-0.8-2.6-0.8-4.1c0-1.5,0.3-2.9,0.8-4.1
		C1.6,5,2.4,4,3.3,3.1c0.9-0.8,2-1.5,3.2-1.9c1.2-0.4,2.5-0.7,3.8-0.7c1.5,0,2.8,0.3,3.9,0.8C15.4,2,16.3,2.7,17,3.7l-3.4,3.7
		c-0.4-0.5-0.9-0.9-1.5-1.3c-0.6-0.4-1.2-0.5-1.9-0.5c-0.5,0-1,0.1-1.5,0.3C8.3,6.1,7.8,6.4,7.4,6.8C7.1,7.2,6.8,7.7,6.5,8.3
		c-0.2,0.6-0.3,1.2-0.3,2c0,0.8,0.1,1.4,0.3,2c0.2,0.6,0.5,1.1,0.9,1.5c0.4,0.4,0.8,0.7,1.3,0.9C9.2,14.8,9.7,14.9,10.3,14.9z"/>
	<path class="st0" d="M23.6,19.5h-5.9L21.3,1h9.2l3.6,18.5h-5.9l-0.7-4.6h-3.4L23.6,19.5z M25.6,5.6l-0.7,5.1H27l-0.7-5.1H25.6z"/>
	<path class="st0" d="M35.6,19.5V1h5.6l4.2,5.8L49.5,1h5.6v18.5h-5.6V8.6l-4.1,5.7l-4.2-5.7v10.9H35.6z"/>
	<path class="st0" d="M58.3,19.5V1h7.3c0.9,0,1.8,0.1,2.6,0.3c0.8,0.2,1.5,0.5,2.1,0.9c0.6,0.4,1.1,0.9,1.5,1.6
		c0.4,0.6,0.5,1.4,0.5,2.3c0,0.8-0.2,1.5-0.6,2.2c-0.4,0.7-1,1.2-1.8,1.5c0.5,0.1,0.9,0.3,1.3,0.6c0.4,0.3,0.7,0.6,1,1
		c0.3,0.4,0.5,0.8,0.6,1.2c0.1,0.4,0.2,0.9,0.2,1.3c0,1-0.2,1.9-0.5,2.6c-0.4,0.7-0.8,1.3-1.5,1.7c-0.6,0.4-1.4,0.8-2.3,1
		c-0.9,0.2-1.9,0.3-3,0.3H58.3z M64,5.4v3h0.7c0.8,0,1.3-0.1,1.6-0.4c0.3-0.3,0.4-0.6,0.4-1.1c0-0.6-0.2-1-0.6-1.2
		c-0.4-0.2-0.8-0.3-1.4-0.3H64z M64,12.1v3h1c0.8,0,1.3-0.1,1.6-0.4c0.3-0.3,0.5-0.6,0.5-1.1c0-0.4-0.2-0.7-0.5-1
		c-0.3-0.3-0.8-0.4-1.6-0.4H64z"/>
	<path class="st0" d="M75.3,19.5V1H81v13.9h6.9l-1,4.6H75.3z"/>
	<path class="st0" d="M89.3,19.5V1h12.4l-1,4.6h-5.8v2.2h5.3l-1,4.4h-4.4v2.6h6.8l-1,4.6H89.3z"/>
	<path class="st1" d="M102.4,17.1l3.2-3.8c1,1.2,2.2,1.7,3.7,1.7c0.6,0,1-0.1,1.2-0.3c0.2-0.2,0.3-0.4,0.3-0.6
		c0-0.2-0.1-0.4-0.2-0.6s-0.4-0.4-0.8-0.7l-3.1-1.9c-1.2-0.7-2.1-1.5-2.5-2.2c-0.5-0.7-0.7-1.5-0.7-2.5c0-1.8,0.6-3.2,1.8-4.3
		s2.8-1.6,4.7-1.6c1.2,0,2.3,0.3,3.3,0.8c1.1,0.5,2,1.2,2.8,1.9l-3.3,3.5c-0.4-0.4-0.8-0.7-1.3-1c-0.5-0.3-1.1-0.4-1.6-0.4
		c-0.5,0-0.8,0.2-0.8,0.7c0,0.2,0.1,0.4,0.2,0.6c0.2,0.2,0.3,0.4,0.5,0.5l3.7,2.3c0.7,0.4,1.2,0.8,1.6,1.1c0.4,0.4,0.7,0.7,0.9,1.1
		c0.2,0.4,0.4,0.7,0.4,1.1c0.1,0.4,0.1,0.8,0.1,1.3c0,1.8-0.6,3.2-1.8,4.2c-1.2,1-2.8,1.6-4.8,1.6c-1.5,0-2.8-0.2-4-0.6
		C104.7,18.9,103.5,18.2,102.4,17.1z"/>
	<path class="st1" d="M130.8,13.1l3.4,4.3c-0.9,0.9-1.9,1.5-3.1,2s-2.4,0.7-3.8,0.7s-2.6-0.2-3.8-0.7c-1.2-0.4-2.3-1.1-3.2-1.9
		c-0.9-0.8-1.6-1.9-2.2-3.1c-0.5-1.2-0.8-2.6-0.8-4.1c0-1.5,0.3-2.9,0.8-4.1c0.5-1.2,1.3-2.2,2.2-3.1c0.9-0.8,2-1.5,3.2-1.9
		c1.2-0.4,2.5-0.7,3.8-0.7c1.5,0,2.8,0.3,4,0.8c1.2,0.6,2.1,1.4,2.9,2.4l-3.4,3.7c-0.4-0.5-0.9-0.9-1.5-1.3c-0.6-0.4-1.2-0.5-2-0.5
		c-0.5,0-1,0.1-1.5,0.3c-0.5,0.2-0.9,0.5-1.3,0.9c-0.4,0.4-0.7,0.9-0.9,1.5c-0.2,0.6-0.3,1.2-0.3,2c0,0.8,0.1,1.4,0.3,2
		c0.2,0.6,0.5,1.1,0.9,1.5c0.4,0.4,0.8,0.7,1.3,0.9c0.5,0.2,1,0.3,1.5,0.3c0.8,0,1.5-0.2,2-0.5C129.9,14.1,130.4,13.7,130.8,13.1z"
		/>
	<path class="st1" d="M156,19.5V1h6.6c1.2,0,2.2,0.2,3.2,0.5c0.9,0.3,1.7,0.8,2.4,1.4c0.7,0.6,1.1,1.3,1.5,2.2
		c0.3,0.8,0.5,1.8,0.5,2.8c0,1-0.1,1.9-0.4,2.7s-0.7,1.6-1.3,2.2s-1.4,1.1-2.3,1.5c-0.9,0.4-2.1,0.5-3.5,0.5h-1.1v4.6H156z
		 M161.6,5.6v4.6h0.8c0.6,0,1.1-0.2,1.5-0.5c0.4-0.4,0.6-1,0.6-1.8c0-0.9-0.2-1.5-0.6-1.8c-0.4-0.3-0.9-0.5-1.5-0.5H161.6z"/>
	<path class="st1" d="M171.9,19.5V1h12.4l-1,4.6h-5.8v2.2h5.3l-1,4.4h-4.4v2.6h6.8l-1,4.6H171.9z"/>
	<path class="st1" d="M153.2,6.2C152.6,5,151.9,4,151,3.1c-0.9-0.8-2-1.5-3.2-1.9c-1.2-0.4-2.5-0.7-3.8-0.7s-2.6,0.2-3.8,0.7
		c-1.2,0.4-2.3,1.1-3.2,1.9c-0.9,0.8-1.6,1.9-2.2,3.1c-0.5,1.2-0.8,2.6-0.8,4.1c0,1.5,0.3,2.9,0.8,4.1c0.5,1.2,1.3,2.2,2.2,3.1
		c0.9,0.8,2,1.5,3.2,1.9c1.2,0.4,2.5,0.7,3.8,0.7s2.6-0.2,3.8-0.7c1.2-0.4,2.3-1.1,3.2-1.9c0.9-0.8,1.6-1.9,2.2-3.1
		c0.5-1.2,0.8-2.6,0.8-4.1C154,8.7,153.7,7.4,153.2,6.2z M149.9,12.3c-0.4,1.1-1.4,1.7-2.6,1.7c-0.8,0-1.5-0.3-2.1-0.8
		c-0.2-0.2-0.5-0.5-0.7-0.7c-0.2,1.2,0.2,2.1,1,2.9c0.3,0.2,0.6,0.4,1,0.6c0.1,0.1,0.2,0.2,0.2,0.3c-0.1,0-0.3,0.1-0.4,0.1
		c-0.5-0.1-1-0.3-1.6-0.3c-1-0.1-2,0-3,0.3c-0.1,0-0.1,0.1-0.2,0.1c-0.2,0-0.3,0-0.5-0.1c0.1-0.1,0.2-0.3,0.3-0.4
		c1.3-0.6,2.2-2,1.9-3.4c-0.2,0.2-0.4,0.3-0.5,0.5c-0.4,0.4-0.9,0.8-1.5,1c-1.2,0.3-2.6-0.2-3.2-1.2c-0.7-1.1-0.5-2.6,0.4-3.4
		c1.7-1.7,3.5-3.3,5.2-5c0.2-0.2,0.3-0.1,0.4,0c1.7,1.7,3.5,3.3,5.2,5C150.2,10.1,150.3,11.2,149.9,12.3z"/>
</g>
</svg>
